<mxfile host="Electron" agent="Mozilla/5.0 (Windows NT 10.0; Win64; x64) AppleWebKit/537.36 (KHTML, like Gecko) draw.io/28.1.2 Chrome/138.0.7204.243 Electron/37.4.0 Safari/537.36" version="28.1.2">
  <diagram name="Page-1" id="HQ7-EMZngUBKl-jVBrxV">
    <mxGraphModel dx="1245" dy="822" grid="1" gridSize="10" guides="1" tooltips="1" connect="1" arrows="1" fold="1" page="1" pageScale="1" pageWidth="1169" pageHeight="827" math="0" shadow="0">
      <root>
        <mxCell id="0" />
        <mxCell id="1" parent="0" />
        <mxCell id="KSS__UjvmdYdS34dEkUz-15" value="" style="group" vertex="1" connectable="0" parent="1">
          <mxGeometry x="960" y="40" width="160" height="80" as="geometry" />
        </mxCell>
        <mxCell id="KSS__UjvmdYdS34dEkUz-9" value="&lt;b&gt;D_C&lt;/b&gt;" style="whiteSpace=wrap;html=1;rounded=1;align=left;" vertex="1" parent="KSS__UjvmdYdS34dEkUz-15">
          <mxGeometry width="160" height="80" as="geometry" />
        </mxCell>
        <mxCell id="KSS__UjvmdYdS34dEkUz-14" value="" style="shape=image;verticalLabelPosition=bottom;labelBackgroundColor=default;verticalAlign=top;aspect=fixed;imageAspect=0;image=data:image/png,iVBORw0KGgoAAAANSUhEUgAAAOUAAACsCAIAAAAL/PzlAAAACXBIWXMAABJ0AAASdAHeZh94AAAEHUlEQVR4nO3d0ZKaSgBFUbiV/zbz5eSBlOkriEC3wsG1HlLGUYaq2dW2CG0/DEMHIf47egdgA72SRK8k0StJ9EoSvZJEryTRK0n0ShK9kkSvJNErSfRKEr2SRK8k0StJ9EoSvZJEr2v1/7f+WQ9bePbT9fc82/L6HVu//2fz6+gdSFJe69b3/fKlbzuaeFnz7I8e9mR5x3JLHRlfdxqGYflvPwzDtJuFZ007m93C7CPXe7bNFHo9hfUJ1sR6AeYDnzYOsZumFsuPfBizr12zXg8wm2x5e+UEdHzk7voT6fV462v7ni6fMX/dqTKXl2/XmGV83WDTNPH+4PHGjrhXbmHT/LV+r471ja8p5DK+1pp9WT98FDjnXtUzvpLE+y2S6JUkeiWJXkmiV5LolSR6JYleSaJXkuiVJHoliV7fru9/+v6n/jF0p+r159J/MDk2caJeL88gWk+vHzIMt/GGZGts7rXVVUdfePWSZOtt7tX53TXKZFW7w87x9f5vucbYwp0LT6/a/UDDcDPQ7rZ//jpe0Dwq65zeOTUO0ulrOdWQ7D77rzecTe0y/ZUZ3dtqaxhu429plewH9vlwro99rUlPazbScKzdvamTh67Xf8oPLH5PbnAGH+31PO+uZj9LuxVDS8PX1nFTsxt5GAWb/KLdm4qYSTfudbowTvnGa/b2u6e8L9Oc9YGXxXsf94lspZO/lDexudd7hdM7p/dP73x2u4l9aR6ijPXYPcmSOn8NSvPBN7yLf5+AXnPTnDKsVmrZa/3r+5XSnBJrvbePr5vOar1MmlNibeLtvV44wa2UWs/5rx8i1iYC3m+lW1OqmlcyvpJEryTRK0n0ShK9kkSvJNErSfRK1xUfF5/8rG29kkSvJNErSfRK1xUnMJz8TAa9kkSvJNErSfRKEr2SxPUFNDBd16f8UcOFUfRKrYci7/99x3Jp5gNUmQ6f5eJUzZec0itJ9EoSvZJEryTRK1WmXwT01lXUHc+i1kOy92MCD9/B1uRYgV5p4GNfbmU+QBK9kkSvJNErSfRKEr2SpOW5iZxW21VbDryG1vhKEr2SRK8kMX8lifGVJHoliV5J4nzCr+D4KxxAryTRK0kcf+WvcY5rfW1oRq8k0StJ9EoSvZJEryTRK0n0ShK9kkSvJNErSfRKEr2SRK8k0StJ9EoSvZJEryTRK0n0ShK9kkSvdF2xAEzblWCa0ytJ9EoSvZJEr3RdsayL9V2gGb2SRK8k0StJ9EoSvZLEesXfouEHrb5vA1bRK0nMB0hifCWJXkni+zi/0Y5jBSc5D8b4ShK9ksTxAZIYX0miV5I4PvDtFo4VnOSYQMn4ShK9ksTxAZIYX0miV5LolSR6JYleSaJXkuiVJHoliV5JoleS6JUkeiWJXkmiV5LolSR/ADZKnCumu7lpAAAAAElFTkSuQmCC;" vertex="1" parent="KSS__UjvmdYdS34dEkUz-15">
          <mxGeometry x="50" y="5" width="99.86" height="75" as="geometry" />
        </mxCell>
        <mxCell id="KSS__UjvmdYdS34dEkUz-17" value="" style="group" vertex="1" connectable="0" parent="1">
          <mxGeometry x="160" y="160" width="160" height="80" as="geometry" />
        </mxCell>
        <mxCell id="KSS__UjvmdYdS34dEkUz-10" value="&lt;b&gt;DC&lt;/b&gt;" style="whiteSpace=wrap;html=1;rounded=1;align=left;" vertex="1" parent="KSS__UjvmdYdS34dEkUz-17">
          <mxGeometry width="160" height="80" as="geometry" />
        </mxCell>
        <mxCell id="KSS__UjvmdYdS34dEkUz-16" value="" style="shape=image;verticalLabelPosition=bottom;labelBackgroundColor=default;verticalAlign=top;aspect=fixed;imageAspect=0;image=data:image/png,iVBORw0KGgoAAAANSUhEUgAAANoAAACeCAIAAADbtoP2AAAACXBIWXMAABJ0AAASdAHeZh94AAAEUklEQVR4nO3d0XKiMABA0WRn/9v65dkHdiIFxEgC3MA9sw+2tRLrNQG03ZhSChLDn7MHIL2Yo0DMUSDmKBBzFIg5CsQcBWKOAjFHgZijQMxRIOYoEHMUiDkKxBwFYo4CMUeBmKNAzPEl/lb+XZNbePfV8s+8u+XygZWPH+Xv2QNgGf/mUIxx/ReJNjzkH2Nd/NJkJOsD6zTEgbPjWyml9Yc2pTTPYuW75hkt3sLiNcu9u80umONBygurabF3oByf8Xn2ENqYT5CVLQ43mF04VvcddzEENNnhG18u3PkbrvnVvmPXzPEI5THdJLt3vl6sWx248Q8AK2v4eCSkua9nx2s/X8cBfbyn+crDhQ0/mcJbmJRdePpp86hO9HWO472ZfM+H+7zyyfm3B97P69uRLB5zfLzB8SfXt1h+zY8b7cX2fcdxZ/ny4ifn5rvnZItr7umDZ46q0vYcPz71L4N5p5ijqgQ67yiZo0AOzdETH1rX+DT4/HzE5Fh7fvmS+0DaZuN5x3dnNL46tWGImnDfUSDmKJCWObr4qtLuL41seBfjIz32GIn4iK/U5YLt8m6IOWZ2eTfoHDN4lzE+QwhpdWwl11Ef7wbPFZK7jPFpbZX6yDGDd+kUWKmzHDNglyk9hhydJjfrNccM1aVFVuo+xwzS5bjI4ML9pevkmJ3e5ZCg0+QGF8wxO7dLF+4N+jjv2Mq4yzh69bIyl5V1Of5+jbTJhprcFNO9csxylz+nDqOGOV7KMNP8dFvkJXO88r5jiZ8QQp+L9SXd9+23uYz9pplcT6tNHDDmc903x701b/EO7r5Y7+Hyx7/7McfGnBRruFi3ZIuVzLEZW6znYt2SIVZydmzGFus5OzZQEqKxlnB2FIg5CsQcBWKOAjFHgZijQMxRIOYoEHMUiDkKxBwFYo4CMUeBmKNAzFEg5igQcxSIOQrEHAVijgIxR4GYo0DMUSDmKBBzFIg5CsQ/itLGuz8x6p8e/Yqzo0DMUSDmKBBzFIg5CsQcBWKOAjFHgZijQMyxS1f9r1vvm2N+RDt6aMdDPXLYMT7zv1035GvWIRz10DbfSkdPpEL3nR0F5OwYQov32pRMVJVbWdzEMe8SOmwavm+O3b3dK6XHJIvD7kLe9N5bdLHuybiG7p5OJe47O3bqkhVmzo4CMUeBmKNAzFEgHsoohOIzi3ufXnV2FIg5CsTFWiFgTmfGlNLZY5D+c7EWiIu1pja8f6fVWu/sKBBzFIiHMgJxdhSIOQrEI+upGGO+PNmTifF2+zYrR9l7nDk3x18mweUPx41qPy7WL/PJL3+YUrrbvHiK260+Kz6uxTdcrA/m7CgQcxSIOQrEHF9SSpMjaA+oD+a++dTiecdJl/7QdmKOAnGxFog5CsQcBWKOAjFHgZijQMxRIOYoEHMUiDkKxBwFYo4CMUeBmKNAzFEg5igQcxSIOQrEHAVijgIxR4GYo0DMUSDmKBBzFMg/N9MbxKabvH8AAAAASUVORK5CYII=;" vertex="1" parent="KSS__UjvmdYdS34dEkUz-17">
          <mxGeometry x="50" y="7.25" width="100.38" height="72.75" as="geometry" />
        </mxCell>
        <mxCell id="KSS__UjvmdYdS34dEkUz-19" value="" style="group;fillColor=#fff2cc;strokeColor=#d6b656;" vertex="1" connectable="0" parent="1">
          <mxGeometry x="560" y="320" width="200" height="80" as="geometry" />
        </mxCell>
        <mxCell id="KSS__UjvmdYdS34dEkUz-8" value="&lt;b&gt;DC(D_R)&lt;/b&gt;" style="whiteSpace=wrap;html=1;rounded=1;align=left;fillColor=#fff2cc;strokeColor=#d6b656;" vertex="1" parent="KSS__UjvmdYdS34dEkUz-19">
          <mxGeometry width="200" height="80" as="geometry" />
        </mxCell>
        <mxCell id="KSS__UjvmdYdS34dEkUz-18" value="" style="shape=image;verticalLabelPosition=bottom;labelBackgroundColor=default;verticalAlign=top;aspect=fixed;imageAspect=0;image=data:image/png,iVBORw0KGgoAAAANSUhEUgAAAUIAAADlCAIAAACpoWkpAAAACXBIWXMAABJ0AAASdAHeZh94AAAHLElEQVR4nO3d0XaiyAKGUThr3tv2yZkLZzgMIBYIyF/sfdErsQlBw2cVSEzbdV0DJPvfrzcA+JaMIZ6MIZ6MIZ6MIZ6MIZ6MIZ6MIZ6MIZ6MIZ6MIZ6MIZ6MIZ6MIZ6MId6FMn62z19vAkS6UMbANjKGeKszbtt2l2+813qA1Rl77y64mo2jcf/vy+i/pjcufPlXmw80zV+bv7Jt235k7j+evXGq67qF/wVW2X6KazZCZcL5nKmGeDKGeKdm7IQWHGH7Ka5Zw1Bfx8mvs1n9LdOPHU7Dl1Zn3Mc5vXF6+/TGdx8Dmzk2hngyhnh7ZmySDD+x8ymuKb9F/KXR6f3C58rR5XSjL5xeQldyy7s1l2+YS/cOcnjGj+5RuKTg31kucGTDq3qz171/XHK0Jcsb5rXGQ13o2PjRPZT80fBFu3cLTHNa+KppfrNrmF2y3Lt1sosLZdwo+XTlZZoPX9nhk2ouYvpbZV82PBrhRf5D1xqNGwPykaZT6+Evhy/P1adLvtruOfr9IaPxfZWPzNvGcE5zudG4MSAv+rIiw2aVjMYBVh2Cjt4+aUPzhWtYdWz8/Vax4LoTpGf7LH/NGe7suhk3Sl40Ozf++U/zmltVPZPqVNds45pbVb0rnuLqOdcFJS6dMVDi6hkbkOGjq2cMfBSQsQEZlgVk3CgZFmVkDCyIydiADO/EZAy8k5SxARlmJWUMzArL2IBcrm2f7afHqmQZri8s40bJK6n0DvIyZi1DbvUiMzYgl+v+/YVtJVcsMmNWUXL1UjM2IK8yLFnM9UnNmLW67mFYrlVwxgbkDZRcpUu/pV6Jyt52b1hX9939eq1qdiWjhnf5Rrusim1qyPjPr7cB1tr3+S54Uv3yp2n+/Hob4LdqeIPbPxXN5Uyqq3fEWYkaMq7JCRn0u1HXPXbZpaT7c/GTalYZNvzbLWFHRuO7MPWtmIxvwSBcN5Pq+mm4ejKunIbvwKS6fgKuntG4chq+A6NxtUoCFnkdjMYQT8YQT8YQT8YQT8YQT8YQT8YQT8YQT8YQT8YQT8YQT8YQT8YQT8YQT8YQT8YQT8YQT8YQT8YQT8YQT8YQT8YQT8YQT8YQT8YQT8YQzx9/qdm7P03uT5ZXxmgM8WQM8WQM8WQM8WQM8WQM8WQM8WQM8WQM8SrJeHhZElzfvnts9sWYw8eibZ8VXFeYeJlk4jb/ykF7bNt13S4rOp8ReJV311TzW7uUXMmkGu4se1I9lT6p23eCWjLq7vtd0h//Qx03CQrOuOseo8elgn0o8S4kbvNPHLfHZk+qh4+CnYnrO2iPzc64p2Gy7LvHVpIx3JmMIZ6MIZ6MIZ6MIZ6MIZ6MIZ6MIV7wxZh89O4aA1fLVMZoDPFkDPFkDPFkDPFkDPFkDPFkDPG8bpyhbdv+49GbmbZt8NubsgsZBxiF2n86bJs7M6m+uulg23/adZ1xmEbGUAEZQzwZQzwZQzwZX13XdaMz0k5QM+IFpwCjkvuz0/2Nrw+ctb4tGWeYTVS3vJhUQzwZQzwZQzwZQzwZQzwZQzwZQzwZQzwZQzwZQzwZQzwZQzwZQzwZQzwZQzwZQzwZQzwZQzwZQzzvxfWPtn02TdN1jy+XYZvXY3ummn6ORuNS5+9nUMho/JmAT3POCFnfD9Ro/EH/I69pDkZlZLxEw0QwqZ43nHdpmIuT8QyDMFlMqsc0zAn2Pc2WPRr3j0XbPnep7oSG7zZdT7y/x23zcM177bRN07TRf86rvlcObu6GLzjtcpdNqiFe9qR66MtntdEz9OzadrkYM3GS+Y3C+3upizEP+hkddx+zM949g657vB7rHY9bpt/iiNVeVuL9Pe5HXzJabGBSPdY/spc6gqIOw253fLKQ8YxhyWLmCPsO+DKe13UPwzIpZLxEyUSQ8QdK5vqyz1Sf41WyjE/gQd5GxqWmrxbAVOFOUrJY+Wmw7Isx4Wp2fK4vz9ixMcQzGkM8ozHEkzHEc6YajrLhdNe2izSNxhCvttG4bdvhp4Un8Nr2/6f6XmsYfuHwf8tvebfmkg0rXxKa+s5Uj3J6V9dwgdcH5RmPFpiuYXbJ8g1bexeg8kl113Wj8Xm6wDSSha+aRjW7htklC1Ufbftfswucv1XRaptUH6q8TEPosnfTDQFvI+N5rwF52+R2dsnRCO/pYFZ/APLrDdnfwlnr799CQMZvzZY8/HghsOmS2w7ab9Uwm8m4VHmE35+gqn4Qdip+X7XtLttmwqPDs4Xz0u9W+/EFp81nquvz7jGZLkChCkfjVc/0/cKbJ7GFa1h1bLzt1e8402MNtvEgcraPExNtr1XhaDxr9uTnz/eVa27VyYZj8veTo3vytAfxKr+KC+5AxhBPxhBPxhBPxhBPxhBPxhBPxhBPxhBPxhBPxhBPxhBPxhBPxhBPxhBPxhBPxhBPxhBPxhBPxhBPxhBPxhBPxhBPxhBPxhDvbwjjmQSjTBbhAAAAAElFTkSuQmCC;" vertex="1" parent="KSS__UjvmdYdS34dEkUz-19">
          <mxGeometry x="80" y="1.7699999999999818" width="110" height="78.23" as="geometry" />
        </mxCell>
        <mxCell id="KSS__UjvmdYdS34dEkUz-21" value="" style="group" vertex="1" connectable="0" parent="1">
          <mxGeometry x="560" y="40" width="160" height="80" as="geometry" />
        </mxCell>
        <mxCell id="KSS__UjvmdYdS34dEkUz-1" value="&lt;b&gt;R&lt;/b&gt;" style="rounded=1;whiteSpace=wrap;html=1;align=left;" vertex="1" parent="KSS__UjvmdYdS34dEkUz-21">
          <mxGeometry width="160" height="80" as="geometry" />
        </mxCell>
        <mxCell id="KSS__UjvmdYdS34dEkUz-20" value="" style="shape=image;verticalLabelPosition=bottom;labelBackgroundColor=default;verticalAlign=top;aspect=fixed;imageAspect=0;image=data:image/png,iVBORw0KGgoAAAANSUhEUgAAAKwAAABtCAIAAACz5x2eAAAACXBIWXMAABJ0AAASdAHeZh94AAACi0lEQVR4nO3d0W6cMBRF0eMo/w18ufOABhHMIDDGvtfspaqakk7iil1jYCRCjFF4t5/WA0B7RAAiABFARAARAUQEEBFARAARAUQEEBFARAARAUQEkKkIpjC1HsJLGYoArRABrkcQQijyg0t9H9x3OQI+k9ifzJlg+X22+VK68eDtt4aPEn6z3xlCWGaF5fXuxlSM8eCrqCx/Ybi7C9mvHnF2ACJA5QhYBtqUvzDctd7N8/pgXgMuW9LXLCOauxzBsmvTjen2dOO312iINQGIAGUjYHp3qvDCMMWnBOyzde12CtMQh9ajeB1ba4IhDswc9dmKAE2Yi4DJoD5zEYgOqrMYgeigLqMRiA4qshuB6KAW0xGgDusRMBlUYD0C0cHzHEQgOniYrXsHx7LvLITqAUVXd0B8zAR41OO3kguaDwrZtxnr/O+sP+vc52wmYHHwBGcRiA4e4C8C0UFpLiMQHRTlNQIU5OnsYGOeDMbPH72cmq9PH66O+c57DziOQNL4+SVj52YnB2NkzO4PB+MnAmTzPRPMRkmH06Opy8alDgcF+Y7Ayzpg7c6YYxzmDsr+w90fDnAfEYAIQAQQEUDezw4uMXJlxqAXReBCwUuN508jXxGBx8sJNbEmgKtPG+MhzAQgArxkYehUxjlt3hKYmQBEAM4OoP7WBJtHKqSJ8+ylVG8R6P+O3zyYq9GIrOswgm+W57W1HkiOgzOF+xfFWRiix5kgfQQPjvW2Stp9TOfuX8Ci28PB+qFbONZtBKKD03qOQP87WJ7PzYO6NzhAoveZAGcQAYgARAARAUQEEBFARAARAUQEEBFARAARAUQEEBFARAARAUQEEBFARAARAUQEEBFARAARAST9ATZu5nyl/zXeAAAAAElFTkSuQmCC;" vertex="1" parent="KSS__UjvmdYdS34dEkUz-21">
          <mxGeometry x="40" y="5" width="110.46" height="70" as="geometry" />
        </mxCell>
        <mxCell id="KSS__UjvmdYdS34dEkUz-23" value="" style="group" vertex="1" connectable="0" parent="1">
          <mxGeometry x="360" y="160" width="160" height="80" as="geometry" />
        </mxCell>
        <mxCell id="KSS__UjvmdYdS34dEkUz-7" value="&lt;b&gt;R_C&lt;/b&gt;" style="whiteSpace=wrap;html=1;rounded=1;align=left;" vertex="1" parent="KSS__UjvmdYdS34dEkUz-23">
          <mxGeometry width="160" height="80" as="geometry" />
        </mxCell>
        <mxCell id="KSS__UjvmdYdS34dEkUz-22" value="" style="shape=image;verticalLabelPosition=bottom;labelBackgroundColor=default;verticalAlign=top;aspect=fixed;imageAspect=0;image=data:image/png,iVBORw0KGgoAAAANSUhEUgAAANsAAAC5CAIAAAAu3d1GAAAACXBIWXMAABJ0AAASdAHeZh94AAAEJklEQVR4nO3d0XLaOhiFUalz3jvw5D4Xbl0HUwhg8Ja01kWHuE3LxTeSfzu4dZqmAjF+Hf0G4BtFkkWRZFEkWRRJFkWSRZFkUSRZFEkWRZJFkWRRJFkUSRZFkkWRZAkq8lzPR78FjhdUJBRFkubhImutu/zDe/09dObhIn0uh7d6co1cfp1d/Nb24I1vf+nt053/nv7OWuuyXi6vrx7cmqbpxu8ysucnm6s9iYwXmbXJokiyfLRIcwx3PT/ZXLVubj6nnIeY5cj2tVNP1h4uculse3B7fHvwX69h5jySLIoky55F2oV53c6TzZafeuQhWbfyzvX8NX0d/S44UlaR5c+aqsthxRU5s1gOK3TW/pq+nICOKbTIIspR5RZZRDmk6CKLKMcTOtlcMICPo40iZwbwEaTv2mt28BG0VGQR5QAaK7KIsnctnUeumXV61WqRM7NOf9rbtdfs4P1pu8giyu40X2QRZV96KLKIsiNtTzYXDOAd6KrImQG8aZ3s2mt28KZ1WGQRZcs63LUXu2zf9eNlT2OfcvS5Rs7mldJi2Za3P0HgWPMa+fpi+Zl16/PrcaCe18iF08qGDFFkEWU7RimyiLIRAxVZRNmCsYosBvB4nc/aVy0D+OnPkVYuAa6H8Vbe86N6vkJ+W63nUymnn/3hnq7+hKc83K69dvpxkXzMiLv22qmUcnPZiLqL+OKu3cQV+HGLDN+8rmrxPT9q6F2bQIokiyLJokiyKJIs487aD2niukkfrJFksUbeMcIlwCjWSLIokiyKJIsiyaJIsiiSLIokiyJHsdx2Cr//5Ar5X7XW9ZfbTyDVOu7Hkj5Gkd+sg1v3dxEr72PX/pFpmqyOn6HIUSw36MPv1Nu1v1nvzhbFQ1gjv1l2ZzkeRZFXTNNklDmKIq8T5VEU+U/rKGut8+vlBW9isvlre+64HHFaeWPm2/fGgSK576K55ct3bBd2be7YLoHrrWP33UORZFEkWRRJFkWSRZHcsb1Z8NYrsq7+cN9FlNsfG51f7DJ3K5IfuVrbO24c2LXJokiyKJIsiiSLIsmiSLL4SHwn9n1SxYGfV7RGkkWRZFEkWZxHksUaSRZFkkWRZPHTaJ1wPRLeQpFkUSRZXI8cyHyuGf6MXWskWRRJFkWSRZFkUSRZFEkWRZJFkWRRJFkUSRZFkkWRZFEkWRRJFkWSRZFkUSRZFEkWRZJFkWRRJFkUOYrloRf7Pv1id4okiyLJokiyKHIUy6MsPNMCHqBIsiiSLIokiyLJokiyeKJpP3a8PejJ+PCbIsli1yaLNZIsiiSL/4WuT0/M3SE/gWGNJIsiyWLWJos1kiyKJItZu3835u6Q+XrNGkkWRZLFrE0WayRZFEkWRZJFkWRRJFkUSRZFkkWRZFEkWRRJFkWSRZFkUSRZFEkWRZLlfxjWfNWUoz3LAAAAAElFTkSuQmCC;" vertex="1" parent="KSS__UjvmdYdS34dEkUz-23">
          <mxGeometry x="60" y="5" width="82.86" height="70" as="geometry" />
        </mxCell>
        <mxCell id="KSS__UjvmdYdS34dEkUz-25" value="" style="group" vertex="1" connectable="0" parent="1">
          <mxGeometry x="760" y="160" width="160" height="80" as="geometry" />
        </mxCell>
        <mxCell id="KSS__UjvmdYdS34dEkUz-6" value="&lt;b&gt;R_&lt;/b&gt;&lt;b style=&quot;background-color: transparent; color: light-dark(rgb(0, 0, 0), rgb(255, 255, 255));&quot;&gt;D&lt;/b&gt;" style="whiteSpace=wrap;html=1;rounded=1;align=left;" vertex="1" parent="KSS__UjvmdYdS34dEkUz-25">
          <mxGeometry width="160" height="80" as="geometry" />
        </mxCell>
        <mxCell id="KSS__UjvmdYdS34dEkUz-24" value="" style="shape=image;verticalLabelPosition=bottom;labelBackgroundColor=default;verticalAlign=top;aspect=fixed;imageAspect=0;image=data:image/png,iVBORw0KGgoAAAANSUhEUgAAATMAAACvCAIAAAAe6a6FAAAACXBIWXMAABJ0AAASdAHeZh94AAAE00lEQVR4nO3d23KbSBiFUZHKe8t+cnJBmWBACHRid/daNTWlwZLMRb75m0Okru/7CxDmz9k7AKxQJiRSJiRSJiRSJiRSJiRSJiRSJiRSJiRSJiRSJiRSJiRSJiRSJiRSJiQKKvO7+z57FyBFUJnASJmQ6HCZXde95Be/6n2gSofL9LlB8AEPzszx34PZj5YbN17+1O5Dpf4+/Mqu68b5OT5e3bjU9/3GT4HHzwCtdiU2eAnnZiGRMiHRR8t0vgd2evwM0Kppe8Mx53CyZ9yyfOzQFJYOlzn2tty43L7ceOsxMOU4ExIpExK9skyrU3iVt9+Ic/RvXV7765v2BAoSd4vcd/ctTogr8/IzZvVJyxLLHOiTluWWObC4pU3pZV4MT5pUQJkDfdKUYsoc6JNGFFbmwMEn1SuyzIvhSe1KLXOgT2pVdpkDi1vqU0OZF8OT6lRS5uAdfXYf/x6k3v9fqOzvZ17767W/+k4xKvDizwFKMMb5wuH5mTn2+flMrArLvPw06eCTctVZ5kCflKuq48xVDj4pUf1lDoY49Ukpal7NzljcUpCGyhyMfX5NNpZyCXF68raUfeYxVd1pcMgwPL/2PbmmqyaSLkIrx5lLXz//QKDmVrMzX5fLZXOMRN2d9+Rq1p0MBWm3zBIXdSXuM49pdzULyZQJiZQJiZQJiZQJido9N3uI6w18mJkJiczMO1xC5BRmJiRSJiRSJiRSJiRSJiRSJiRSJiRSZivG25jcz1QEdxr813Xd9D+Xn5DUde1+bBIfpsxfpuFNO5xFC+9mNbtL3/emJZ+kzFaMNwC7E7gIVrO/TFethiQnMjN/GVetsuRcylzR971TPpxLmevEybmUedM0zq7rhsfjA3grZ4D+Wx5bjltaO+y8e9PFrVfNrgDfuj68f8utd96/Y4XeH6JM1m1HNfPAOmL2ko13mP5otifbO1b06sZqlvvuHnWv3omx8aplUbfu5Xhm4hV9f4gy+bT9sRW6EH0Jq1neaBibhxbG28+czeGKu1Um77Ua5/TxzgPF4ZkPd14cZfJR+7tqpMBbHGdy35NhuG3jAWYm6w4dzk1vydjz/Iff4dBx5vN7dSJlsuLoH+KNmzQ23nC6cfs37n/m3V9aCmVywOqi9PQAMvfqScrkgMw/7pl79SRngCCRMiGRMiFRcxdwq/fMBz378K4cZiYkMjMrNIzN5QA8up0TmZkVGhrbuayVZSZl1uxunL59KJYy6zTOwI32xh8ZmIGUWa2dvckykzJrtnHA6fAynDKbMIvT4WU+V03qd6tDAzOZmVm/1QJlGU6ZTZh1KMt8VrO1cd9sHcxMSGRmNsSVkoKYmZBImZBImZBImZBImZBImZBImZBImZBImZBImZBImZBImZBImZBImZBImZBImZBImZBImZBImZBImZBIma0YP+3SVycUQZmQSJmQSJmQSJmtGD8A2idBF0GZkEiZkEiZkEiZkEiZkEiZkMj3Z9bjhbfdubJyOjMTEikTElnNQiIzExIpExL9PXsHeIsHztM6HxvFzIREyoREzs1CIjMTEikTEjk3W7+N87TOx8YyMyGRMiGRc7OQyMyERMqERMqERMqERMqERMqERMqERMqERMqERMqERMqERMqERMqERMqERMqERP8Aivg7CNpAynoAAAAASUVORK5CYII=;" vertex="1" parent="KSS__UjvmdYdS34dEkUz-25">
          <mxGeometry x="30" y="5" width="122.8" height="70" as="geometry" />
        </mxCell>
        <mxCell id="KSS__UjvmdYdS34dEkUz-27" value="" style="group" vertex="1" connectable="0" parent="1">
          <mxGeometry x="560" y="160" width="160" height="80" as="geometry" />
        </mxCell>
        <mxCell id="KSS__UjvmdYdS34dEkUz-4" value="&lt;b&gt;RC&lt;/b&gt;" style="whiteSpace=wrap;html=1;rounded=1;align=left;" vertex="1" parent="KSS__UjvmdYdS34dEkUz-27">
          <mxGeometry width="160" height="80" as="geometry" />
        </mxCell>
        <mxCell id="KSS__UjvmdYdS34dEkUz-26" value="" style="shape=image;verticalLabelPosition=bottom;labelBackgroundColor=default;verticalAlign=top;aspect=fixed;imageAspect=0;image=data:image/png,iVBORw0KGgoAAAANSUhEUgAAAMAAAACYCAIAAAA9Y3HKAAAACXBIWXMAABJ0AAASdAHeZh94AAADWUlEQVR4nO3d0W6bMACG0Xjae7d5cu8iEkPQpim/DcScczGldEvY8sXGkKyl1nqDrf4cvQO8NwERERARAREREBEBEREQEQERERARAREREBEBEREQEQERERCRv0fvwMhKue/8iLV+7PyIRiAiRqDu9hkV9h/tHoxARAREREBEBEREQES6r8LuB60O5j5ar4PmS579T71s02mfy3k+WHgv9+bP9HTPPe7287XfdsJlfMNdusR5oE4j0OfLDQ3sEgF18nm73Z6+mk91KaPTzjiI3mJ6nt7lAOjWbZ8FROTXAZVSmjxwq/vhWL8O6DyrNs5g4wg0/fqw+NZ645M/Hu0+R9u+Civl/zmk6faXG9dqrU++yxvZHtCXT78m1o56p84+rMKIOJHY0RudJdps1xHIIfN4Go9A80Qex0OP4+Vpy/q2w6a39uuApizWG9fb1xu/u82bchBN5EQBdXozEF21DMiUdEEnGoF4RwIi4kRiG4tTXOvZfNRrfwJqZt7H4qLyQXu0B1NYd7XWIceeBwERMYU1s76McwVGoGamqeo69dwE1Nz8gvEVCKi9SzUkoC7mDU2fHRjyQwQOottYH/c8f4vLMIxARAREREBEBEREQEQERERARAREREBEBEREQEQERERARAREREBEBEREQEQERERARAREREBEBEREQEQERERARAREREBEBETEf65wvPlPpJv/hKjvtp+KEYiIgIgIiIiAiAiIiICICIiIgIgIiIiALmd+gjsnoC2m56Dtk9HVfFcb7rZrYal9Gmr+KKXcm1xfMwIRMQKl8tfxK6NL+Cj9hkkBbXHaN1d8p9aPRUOt/gqmsKuYF9PwBSCgy2k7fAqIiICICIiIgIhYxo/jxZM9bU87GYGICIiIKWwch5wfL2P/UGp6M4URMYWNacPl920zoBGIiICIOIgmYgQiIiAiVmEtlVKm24tjg1IOO1p4siLLzz0KqJlFItOX86rGYwprYz3ATF/WWgdeqViFtfHjDHXgFNaVEYiIgIgIiIiA2qi1LlZbYy++JmMe2R3ly/NAi5IG+wcXEBFTGBEBEREQEQERERARAREREBEBEREQEQERERARAREREBEBEREQEQERERARAREREBEBEREQEQERERARAREREJF/yxYPRgCt+REAAAAASUVORK5CYII=;" vertex="1" parent="KSS__UjvmdYdS34dEkUz-27">
          <mxGeometry x="60" y="5" width="88.42" height="70" as="geometry" />
        </mxCell>
        <mxCell id="KSS__UjvmdYdS34dEkUz-43" style="edgeStyle=orthogonalEdgeStyle;rounded=0;orthogonalLoop=1;jettySize=auto;html=1;exitX=1;exitY=0.5;exitDx=0;exitDy=0;entryX=0;entryY=0.5;entryDx=0;entryDy=0;strokeWidth=2;strokeColor=light-dark(#ff0000, #ededed);" edge="1" parent="1" source="KSS__UjvmdYdS34dEkUz-29" target="KSS__UjvmdYdS34dEkUz-1">
          <mxGeometry relative="1" as="geometry" />
        </mxCell>
        <mxCell id="KSS__UjvmdYdS34dEkUz-29" value="&lt;b&gt;C&lt;/b&gt;" style="rounded=1;whiteSpace=wrap;html=1;align=left;fillColor=#ffe6cc;strokeColor=#d79b00;" vertex="1" parent="1">
          <mxGeometry x="360" y="40" width="160" height="80" as="geometry" />
        </mxCell>
        <mxCell id="KSS__UjvmdYdS34dEkUz-33" style="rounded=0;orthogonalLoop=1;jettySize=auto;html=1;exitX=0.75;exitY=0;exitDx=0;exitDy=0;entryX=0.25;entryY=1;entryDx=0;entryDy=0;strokeWidth=2;" edge="1" parent="1" source="KSS__UjvmdYdS34dEkUz-7" target="KSS__UjvmdYdS34dEkUz-1">
          <mxGeometry relative="1" as="geometry" />
        </mxCell>
        <mxCell id="KSS__UjvmdYdS34dEkUz-34" style="edgeStyle=orthogonalEdgeStyle;rounded=0;orthogonalLoop=1;jettySize=auto;html=1;exitX=0.5;exitY=0;exitDx=0;exitDy=0;entryX=0.5;entryY=1;entryDx=0;entryDy=0;strokeWidth=2;" edge="1" parent="1" source="KSS__UjvmdYdS34dEkUz-7" target="KSS__UjvmdYdS34dEkUz-29">
          <mxGeometry relative="1" as="geometry" />
        </mxCell>
        <mxCell id="KSS__UjvmdYdS34dEkUz-36" style="edgeStyle=orthogonalEdgeStyle;rounded=0;orthogonalLoop=1;jettySize=auto;html=1;exitX=0.5;exitY=0;exitDx=0;exitDy=0;entryX=0.5;entryY=1;entryDx=0;entryDy=0;strokeWidth=2;" edge="1" parent="1" source="KSS__UjvmdYdS34dEkUz-4" target="KSS__UjvmdYdS34dEkUz-1">
          <mxGeometry relative="1" as="geometry" />
        </mxCell>
        <mxCell id="KSS__UjvmdYdS34dEkUz-37" style="rounded=0;orthogonalLoop=1;jettySize=auto;html=1;exitX=0.25;exitY=0;exitDx=0;exitDy=0;entryX=0.75;entryY=1;entryDx=0;entryDy=0;strokeWidth=2;" edge="1" parent="1" source="KSS__UjvmdYdS34dEkUz-4" target="KSS__UjvmdYdS34dEkUz-29">
          <mxGeometry relative="1" as="geometry" />
        </mxCell>
        <mxCell id="KSS__UjvmdYdS34dEkUz-46" style="edgeStyle=none;shape=connector;rounded=0;orthogonalLoop=1;jettySize=auto;html=1;exitX=0;exitY=0.5;exitDx=0;exitDy=0;entryX=1;entryY=0.5;entryDx=0;entryDy=0;strokeColor=light-dark(#ff0000, #ededed);strokeWidth=2;align=center;verticalAlign=middle;fontFamily=Helvetica;fontSize=11;fontColor=default;labelBackgroundColor=default;endArrow=classic;" edge="1" parent="1" source="KSS__UjvmdYdS34dEkUz-38" target="KSS__UjvmdYdS34dEkUz-1">
          <mxGeometry relative="1" as="geometry" />
        </mxCell>
        <mxCell id="KSS__UjvmdYdS34dEkUz-38" value="&lt;b&gt;D&lt;/b&gt;" style="rounded=1;whiteSpace=wrap;html=1;align=left;fillColor=#ffe6cc;strokeColor=#d79b00;" vertex="1" parent="1">
          <mxGeometry x="760" y="40" width="160" height="80" as="geometry" />
        </mxCell>
        <mxCell id="KSS__UjvmdYdS34dEkUz-40" value="" style="group" vertex="1" connectable="0" parent="1">
          <mxGeometry x="960" y="160" width="160" height="80" as="geometry" />
        </mxCell>
        <mxCell id="KSS__UjvmdYdS34dEkUz-11" value="&lt;b&gt;DR&lt;/b&gt;" style="whiteSpace=wrap;html=1;rounded=1;align=left;" vertex="1" parent="KSS__UjvmdYdS34dEkUz-40">
          <mxGeometry width="160" height="80" as="geometry" />
        </mxCell>
        <mxCell id="KSS__UjvmdYdS34dEkUz-39" value="" style="shape=image;verticalLabelPosition=bottom;labelBackgroundColor=default;verticalAlign=top;aspect=fixed;imageAspect=0;image=data:image/png,iVBORw0KGgoAAAANSUhEUgAAANkAAACpCAIAAAAp/g/gAAAACXBIWXMAABJ0AAASdAHeZh94AAAEqElEQVR4nO3d23KbMAAAUanT/8b+cvWBhDKAsbivpD2T6TiOL9heS4KkSUwpBQngz9MbIP2wRVHYoihsURS2KApbFIUtisIWRWGLorBFUdiiKGxRFLYoClsUhS2KAtTiO76f3gQ9CdSiGmeLotjcYozxlDs+63ZUjc0t+v9jdJGd4+Lwb2/ypfmZK1c/tPmqyN/d14wxDmPkcHrxzLmU0spXHzF5V2Ru2+TxTq44f4w553y65fwNoz23mfa3uPhoS3wKBusZTewY0ReniK+XnGzJ+oYVPc+4H72sH7nXLzBvYuVa84YWb2Hxkvk+3WYRbPEO+XkVOr2eYv8cvUPRM0im+VL4YIiTsbbiUk9ucf6sjZ/KxdP1PbmLOY5PZy74+kvuLrs4m1scCpufOT9/fuan0xXLL6mR5j5xvbjsYApfd300d+t6EW7TsmxyMH9HuJm3sGm9eHyrHnRmi2U98omtG7+4k/H1BvOXKPsWM0W/BJcvSrb+VGKXuou2ZJ/Fqfbxl5y5VQfhFsjv+KblqHvgWgy/Q6lFtobYYs8iW8NtseeU3Q56i8EBshkFtNizyOoV02LPKbtihbUYHCDrVV6LPYusT6kt9pyya1J2i8EBsiLFt9hzgKxAJS2G5wbIGN8hhLR6vzmXUT0/v9hX+GCRpnZQbT/X3aWuS90jvz4vxnf01/YdUFuLvT7HO4scBkVz3K3OFsNogLytSHM8qNoWezdP2eMcLXKrylvs3TlAptQ5QO7TRIvh9inbHHeo5/hivnd8v0afHjwWs3LscBLiKXd0yk0xtdhi+D0M+Xp6M+5HjriVOXri9fshjnq+77LDK4TQzBzNX7k22mJK3dXfIx5e++G+DiJPr6dodI6+2jjEZ7ekII2Oi9epfm/3OrZ4JofDI5yjT2OIB9niOQzxOOfo01jhQY6L5zDE4xwXj8qp0FJzOC6KwhZFYYuisEVR2KIobFEUtigKWxSFLYrCFkVhi6KwRVHYoihsURS2KApbFIUtisIWRWGLorBFUdiiKGxRFLYoClsUhS2KwhZFYYuisEVR2KIobFEUtigKWxSFLYrCFkVhi6KwRVHYoihsURS2KAr/vsua+//+d8t/CcZxURSOi9/dM1bdPwbTOC6KwhZFYYuisEVR2GJbyHtIjbY4vCTk12YixvfwseO6i6dRYkrp6W14wKbXo8pjOsCD6o2OiwLyWPfaCIH6HuB4YzaNathJeaLRFoEz1Fe7tzmlbpIj8+E7RzdhHB8zxGCLrcGGGGxRHLYoClsURaP70ZuUckykdLZYicw3TM7Fntq/scU15L3O+rheFEWjPxshIMdFUdiiKNx3qdCOg1CEvTTHRVHYoijcjxaF68UfMcbxp/O3aIy+b69li/+NUxuXN8lUF7HF7/ooCy1yZZ+asO885r6LKBwX/xuPfC4N7+d6/MewQPy0j+K+y9Wco6dSSoUuDUtniwvM8RG2uGycY4yxPz2c0BVcA4nCcVEUtigKWxSFLYrCFkVhi6KwRVHYoihsURS2KApbFIUtisIWRWGLorBFUdiiKGxRFLYoClsUhS2KwhZFYYuisEVR2KIobFEU/wDmTULEGi2CdQAAAABJRU5ErkJggg==;" vertex="1" parent="KSS__UjvmdYdS34dEkUz-40">
          <mxGeometry x="60" y="5" width="89.88" height="70" as="geometry" />
        </mxCell>
        <mxCell id="KSS__UjvmdYdS34dEkUz-41" style="rounded=0;orthogonalLoop=1;jettySize=auto;html=1;exitX=0.75;exitY=0;exitDx=0;exitDy=0;entryX=0.25;entryY=1;entryDx=0;entryDy=0;strokeWidth=2;" edge="1" parent="1" source="KSS__UjvmdYdS34dEkUz-10" target="KSS__UjvmdYdS34dEkUz-38">
          <mxGeometry relative="1" as="geometry" />
        </mxCell>
        <mxCell id="KSS__UjvmdYdS34dEkUz-42" style="rounded=0;orthogonalLoop=1;jettySize=auto;html=1;exitX=0.5;exitY=0;exitDx=0;exitDy=0;entryX=0.25;entryY=1;entryDx=0;entryDy=0;strokeWidth=2;" edge="1" parent="1" source="KSS__UjvmdYdS34dEkUz-10" target="KSS__UjvmdYdS34dEkUz-29">
          <mxGeometry relative="1" as="geometry" />
        </mxCell>
        <mxCell id="KSS__UjvmdYdS34dEkUz-44" style="rounded=0;orthogonalLoop=1;jettySize=auto;html=1;exitX=0.25;exitY=0;exitDx=0;exitDy=0;entryX=0.75;entryY=1;entryDx=0;entryDy=0;strokeWidth=2;" edge="1" parent="1" source="KSS__UjvmdYdS34dEkUz-6" target="KSS__UjvmdYdS34dEkUz-1">
          <mxGeometry relative="1" as="geometry" />
        </mxCell>
        <mxCell id="KSS__UjvmdYdS34dEkUz-45" style="edgeStyle=none;shape=connector;rounded=0;orthogonalLoop=1;jettySize=auto;html=1;exitX=0.5;exitY=0;exitDx=0;exitDy=0;entryX=0.5;entryY=1;entryDx=0;entryDy=0;strokeColor=default;strokeWidth=2;align=center;verticalAlign=middle;fontFamily=Helvetica;fontSize=11;fontColor=default;labelBackgroundColor=default;endArrow=classic;" edge="1" parent="1" source="KSS__UjvmdYdS34dEkUz-6" target="KSS__UjvmdYdS34dEkUz-38">
          <mxGeometry relative="1" as="geometry" />
        </mxCell>
        <mxCell id="KSS__UjvmdYdS34dEkUz-47" style="edgeStyle=none;shape=connector;rounded=0;orthogonalLoop=1;jettySize=auto;html=1;exitX=0.75;exitY=0;exitDx=0;exitDy=0;entryX=1;entryY=1;entryDx=0;entryDy=0;strokeColor=default;strokeWidth=2;align=center;verticalAlign=middle;fontFamily=Helvetica;fontSize=11;fontColor=default;labelBackgroundColor=default;endArrow=classic;" edge="1" parent="1" source="KSS__UjvmdYdS34dEkUz-11" target="KSS__UjvmdYdS34dEkUz-38">
          <mxGeometry relative="1" as="geometry" />
        </mxCell>
        <mxCell id="KSS__UjvmdYdS34dEkUz-48" style="edgeStyle=none;shape=connector;rounded=0;orthogonalLoop=1;jettySize=auto;html=1;exitX=0.25;exitY=0;exitDx=0;exitDy=0;entryX=1;entryY=1;entryDx=0;entryDy=0;strokeColor=default;strokeWidth=2;align=center;verticalAlign=middle;fontFamily=Helvetica;fontSize=11;fontColor=default;labelBackgroundColor=default;endArrow=classic;" edge="1" parent="1" source="KSS__UjvmdYdS34dEkUz-11" target="KSS__UjvmdYdS34dEkUz-1">
          <mxGeometry relative="1" as="geometry" />
        </mxCell>
        <mxCell id="KSS__UjvmdYdS34dEkUz-49" style="edgeStyle=none;shape=connector;rounded=0;orthogonalLoop=1;jettySize=auto;html=1;exitX=0;exitY=0.5;exitDx=0;exitDy=0;entryX=1;entryY=0.5;entryDx=0;entryDy=0;strokeColor=default;strokeWidth=2;align=center;verticalAlign=middle;fontFamily=Helvetica;fontSize=11;fontColor=default;labelBackgroundColor=default;endArrow=classic;" edge="1" parent="1" source="KSS__UjvmdYdS34dEkUz-9" target="KSS__UjvmdYdS34dEkUz-38">
          <mxGeometry relative="1" as="geometry" />
        </mxCell>
        <mxCell id="KSS__UjvmdYdS34dEkUz-50" style="edgeStyle=orthogonalEdgeStyle;shape=connector;rounded=0;orthogonalLoop=1;jettySize=auto;html=1;exitX=0.25;exitY=0;exitDx=0;exitDy=0;strokeColor=light-dark(#ff0000, #ededed);strokeWidth=2;align=center;verticalAlign=middle;fontFamily=Helvetica;fontSize=11;fontColor=default;labelBackgroundColor=default;endArrow=classic;entryX=0.75;entryY=0;entryDx=0;entryDy=0;" edge="1" parent="1" source="KSS__UjvmdYdS34dEkUz-9" target="KSS__UjvmdYdS34dEkUz-1">
          <mxGeometry relative="1" as="geometry">
            <mxPoint x="740" y="30" as="targetPoint" />
          </mxGeometry>
        </mxCell>
        <mxCell id="KSS__UjvmdYdS34dEkUz-52" value="" style="group" vertex="1" connectable="0" parent="1">
          <mxGeometry x="160" y="320" width="160" height="80" as="geometry" />
        </mxCell>
        <mxCell id="KSS__UjvmdYdS34dEkUz-12" value="&lt;b&gt;DCR&lt;/b&gt;" style="whiteSpace=wrap;html=1;rounded=1;align=left;" vertex="1" parent="KSS__UjvmdYdS34dEkUz-52">
          <mxGeometry width="160" height="80" as="geometry" />
        </mxCell>
        <mxCell id="KSS__UjvmdYdS34dEkUz-51" value="" style="shape=image;verticalLabelPosition=bottom;labelBackgroundColor=default;verticalAlign=top;aspect=fixed;imageAspect=0;image=data:image/png,iVBORw0KGgoAAAANSUhEUgAAAOQAAADYCAIAAAB0jdgMAAAACXBIWXMAABJ0AAASdAHeZh94AAAFcklEQVR4nO3d7Y6iSACG0anN3rfrldf+IGFZQOQbXjwnkwlt2zTRx7JAbEut9Q8k+OvqDYC5xEoMsRJDrMQQKzHESgyxEkOsxBArMcRKDLESQ6zEECsxxEoMsRJDrMQQKzHESgyxzlX+b/5P9dbw6bvzL/m05vkbNn/7b+XvqzcgSff9aqWU6bevrQjia8qj3+ptyfSGhWbaMLKuVGudvuNrrcNoJn5qGNnoGkavOd+ndUYQ6y3M729LqelMA87WDK6LZhTT1+yN1g9OWawXGO21uzxz0tlcc3X6ccR6vfmp/UiUn5izrrSxla/7ZwwZWRdYNDVsr9wsrCh75hoWzVm3b9WFfu6phFxG1q1Gn80vHwLuuVUbGVmJYQeLGGIlhliJIVZiiJUYYiWGWIkhVmKIlRhiJYZYiSHWw5XyLuW9/TqI9SRa3E6s5zF8biTWk9T6ahb0uppYz6PXjcR6qm6vkl1KrGer9WWIXUes19DrCt4wOK7bUBvWvmp9Nb9lr15P2OZrecPgOAPeqGsfA0bW/7w7gf4zWOByvxvrezB2vjrDxo5Pqc2qRlfSG793+UW7rGp65Vf5lVin0xxqJ5THPfG1d3/7uzZ65Dy165mxLk3zfN1Sr92SIE+I9f5pdj1+n/04ebFmpdljQN3i7rFGp9mj1I3uFeuT0uxR6naHxzrsb8Jj0hwl040Oj3V+f4uyjqPU7e41DXikOZlKeQ5nXRFDrMQQKzEWx7rXpzf5FCiWWhyr81+5ysqRtf2/0fvW8MKJH9+0+fyS9Yeuup8H2S6PXjg0/Hhc+Gr9DtZoavrjOI4GEEOsxDg1VrtTbLHzuQHDzxLvfsD46LJpLjMtjrVNcHjh8PLhhZ+W4StzVmLcKNZnn3nNdnvG6mmdQ91oZIVpYiWGWIkhVmKIlRhiJYZYiSFWYoiVGGIlhj8fdIZPf0DYHxZexMhKDLESQ6zEECsxxEoMsRJDrMQQKzHESgyxfnGHT4O+j2tvDbGO694rKb2W8m7/7b7m0eWT+SOpIw69Pz6dG5DlkjMZjKzEcNbVXFvGkjkj6Pax6qBzuO4z/It1RK2v3j0Ucf7eQRt5n1vDNGBc9/6IKPVQN7k1xPqFUruuvTXESgyxEkOsxBArMcRKDLESQ6zEECsxvNx6hk/H0r3isIiRlRhiJYZYiSFWYoiVGGIlhliJ4TjrMqWUdrn3xuBSvFX4WGJdoJdj+2W3YI5jGjDXcOBsv6y1GlNPIFZiiJUYYiWGWIkh1rlqrb29fgcBTubQ1QK9XtsjAO2FzYIjAwcR6zKjIarzHKYBxBArMcRKDLESQ6zEECsxxEoMsRJDrMQQKzHESgyxEkOsxBArMcRKDLESQ6zEECsxxEoM78HapJT3yb/xlz8zw8hKDCPrDs4Z7c4fxe/GyEoMsRJDrMQQKzHEygLX7uSJdVx7rwTtg5fybv/tvubR5ZP5gJFxi+6SHzx0dclrE0ZWYnhR4LuJUeRWL7d2N2bHke8+I7pYxyW+BH/QNtf66vV61Y1jGsB33TovfBiLlQWufcIRKzHESgyxEsPRgB3c5+DOs4mVP39mP97mXO24nTCxbpJ4ODaXOSsxnMhCDCMrMcRKDDtY9K04EnfOjqaRlRhiJYajAcQwZ52rlNL9cvggL8Uj/1hiXaDbYjfNXsccRKw7aKp9ZLITRwbOf6nZDhYxjKwLdMdO09Pz2SeYq52kftqRsoN1NNOAxWqtj5ye3p9Y19DrJcS6UrfXUkqz3C5wBNMsYhhZiSFWYoiVGGIlhliJIVZiiJUYYiWGWIkhVmKIlRhiJYZYiSFWYoiVGGIlhliJIVZiiJUYYiWGWIkhVmKIlRhiJYZYifEvlYQTx03TQOUAAAAASUVORK5CYII=;" vertex="1" parent="KSS__UjvmdYdS34dEkUz-52">
          <mxGeometry x="80" y="5" width="73.89" height="70" as="geometry" />
        </mxCell>
        <mxCell id="KSS__UjvmdYdS34dEkUz-54" value="" style="group" vertex="1" connectable="0" parent="1">
          <mxGeometry x="360" y="320" width="160" height="80" as="geometry" />
        </mxCell>
        <mxCell id="KSS__UjvmdYdS34dEkUz-13" value="&lt;b&gt;DD_R&lt;/b&gt;" style="whiteSpace=wrap;html=1;rounded=1;align=left;" vertex="1" parent="KSS__UjvmdYdS34dEkUz-54">
          <mxGeometry width="160" height="80" as="geometry" />
        </mxCell>
        <mxCell id="KSS__UjvmdYdS34dEkUz-53" value="" style="shape=image;verticalLabelPosition=bottom;labelBackgroundColor=default;verticalAlign=top;aspect=fixed;imageAspect=0;image=data:image/png,iVBORw0KGgoAAAANSUhEUgAAAS4AAAC4CAIAAADSapb+AAAACXBIWXMAABJ0AAASdAHeZh94AAAF5ElEQVR4nO3d0W6rRhiFUVP1vX3y5NMLdBAFTADDsIG1LiofhxBU+cs/4NhuSikv4Gz/nH0AwOslRQghRYggRYggRYggRYggRYggRYggRYggRYggRYggRYggRYggRYggRYggRYggRYggRYjw79kHcBlN0/T/ufCNSJqm6bZs99D/xv5Xl9/zac9LDmz5llQmxRXmKxoYpLvE4Ftm9tD/0uBIZg5s+ZbUZ4G6USllPrZSyviBPvNd4zAm9zC55ULCSybFCMvrMsruygK1tnYwblsoTm45mLSSvigpnmCyxv7tmUjGW64Ne3z1iARSPN/ykL6/6GIYxnKuuNGXj+lfr/ocQYfJTMUVVp2SdRtvXhAu3MOqc8Vtz45SgV+TEMFU/NbkOvP0X3CZR8UMUxEiuGwDEaQIEaQIEaQIEaQIEaQIEaQIEaQIEaQIEaQIEaQIEaR4uKb5aZqf77fh3qRYidKYJ8V6jD5mSLGSUt7tDTUySYr1qJEZUqyqX6Mg6ZNibaW8jUfGpHgONTLgbaam9QvpstlXKe/2p+xVY4Vj5jjeZmra1YeVFC/HVJz2Z3QDDiXF//n5Owz/9O78csK0A3ZyJ4PZu8sP4qKk+Hr1Cnz/jeE9m9AuunK6k8YvdfuxOr2ip6fYRviu/tjtd1j5R5PpoSmOx2A1rnMy6Vkpnlhg60LD8NfPnPIRcft6RIqnF9i6UIetT5+sWv+TIZ/g5imedSo4drkOZ7RNCnJf90wxZAwO3CBCjnOrFDMLbF2xw1WfssyXbpJizkJ0bEmEmaF2C1EdVnDtFJPH4G2UUtRYwSVTVGBlaqzgSikq8ET9GrtzyPaGRHdxjRSTTwXvahxYd4/2jhCdojHIcySmqEAeKCtFC1Ee6/AUf9a8Ek+EPNbhKS6va1W0cDPefBEiSBEiSBEiSBEirE5xrxeMeuEp9K1O0R89wRE2TsXuv63Bl8Z3znz7V4cPd7H9ecXB+w6NX2Y687IaL7qBge2XbSZDUhds4woqRMj6c3DC1f+EnMx3/TlC1anoIg18svNUHL9dX3uFprtnfNvp5eXUmVRP+4y61Sl2gY3vHN8/vvPTbXg4l20gQlCKXjfMk+2ZogUnbBY0FdnL0y543IPnFe+jX2DT/Ky6znnFz0I+65gP+rlSvInxJNw8G6OG6sKDiTrmbSxQIYKpeGfLl08LF11Rf/iWsEDdkRRvopT34CGy6tF5lfPDvrOOuftfve8BWKDeR/+RccW0Hk6KN6TDK5IiRJAiRJAiRHAFldVu8Hx6ICnC0I5/4rP8EpoUWcG12eM4V4QIpiIMnTL8TUWIIEWIYIEKczY8c7NtfWsqQgQpQgQLVJhT7WqqqQgRpAgRLFBhqZmrqd+vY01FiCBFiGCBCksdejXVVIQIUoQIUoQIUoQIUoQIUjxc0/z8+kKbJdtwb1I8nwh5eV7xXCKkYyqepuvQOxrykuJZdMiABWptZ31WLuGkWJVhyCcWqPXokBlSnNZls9dFzgod7n7M1NSUUs4+hkRXfzQbvJdjKkIEl21+9+WEGQzYyb212+z7g7gWKU7bfYFXyrtNpWl+Dlo9WpRemgVqPV0qxhdjUqyqX6Mg6ZNibaW8jUfGpHgONTIgxdOokT4pnqm/WOXhpHg+NfLyh28QwlSECFKECFKECFKECFKECFKECFJcqvm/5d812MOnry6/59Oelx/Y8uOnGq9XXKH/HGzT/PKU7IaH+6+hTn5pcCTzBybCWKbiRqWU+Yd1KWWcxMx3jROa3MPklst92ienk2KE5XV90yHJLFBrawfjqrXu/JaDSSvUi5LiCSZr7N9eeLLXbrk5bKJI8XzLQ5LcjTlX3OjLEn696sPTmIorrDol6zZub2zoduEeVp0rfn9UHMQiByKYit+aXGee/gsu86iYYSpCBJdtIIIUIYIUIYIUIYIUIYIUIYIUIYIUIYIUIYIUIYIUIYIUIYIUIYIUIYIUIYIUIYIUIYIUIYIUIYIUIYIUIYIUIYIUIcJ/8H7Xidk469oAAAAASUVORK5CYII=;" vertex="1" parent="KSS__UjvmdYdS34dEkUz-54">
          <mxGeometry x="40" y="5" width="114.89" height="70" as="geometry" />
        </mxCell>
        <mxCell id="KSS__UjvmdYdS34dEkUz-55" style="edgeStyle=none;shape=connector;rounded=0;orthogonalLoop=1;jettySize=auto;html=1;exitX=0.75;exitY=0;exitDx=0;exitDy=0;entryX=0.25;entryY=1;entryDx=0;entryDy=0;strokeColor=default;strokeWidth=2;align=center;verticalAlign=middle;fontFamily=Helvetica;fontSize=11;fontColor=default;labelBackgroundColor=default;endArrow=classic;" edge="1" parent="1" source="KSS__UjvmdYdS34dEkUz-12" target="KSS__UjvmdYdS34dEkUz-11">
          <mxGeometry relative="1" as="geometry" />
        </mxCell>
        <mxCell id="KSS__UjvmdYdS34dEkUz-56" style="edgeStyle=none;shape=connector;rounded=0;orthogonalLoop=1;jettySize=auto;html=1;exitX=0.5;exitY=0;exitDx=0;exitDy=0;entryX=0.294;entryY=0.988;entryDx=0;entryDy=0;entryPerimeter=0;strokeColor=default;strokeWidth=2;align=center;verticalAlign=middle;fontFamily=Helvetica;fontSize=11;fontColor=default;labelBackgroundColor=default;endArrow=classic;" edge="1" parent="1" source="KSS__UjvmdYdS34dEkUz-12" target="KSS__UjvmdYdS34dEkUz-4">
          <mxGeometry relative="1" as="geometry" />
        </mxCell>
        <mxCell id="KSS__UjvmdYdS34dEkUz-57" style="edgeStyle=none;shape=connector;rounded=0;orthogonalLoop=1;jettySize=auto;html=1;exitX=0.25;exitY=0;exitDx=0;exitDy=0;entryX=0.25;entryY=1;entryDx=0;entryDy=0;strokeColor=default;strokeWidth=2;align=center;verticalAlign=middle;fontFamily=Helvetica;fontSize=11;fontColor=default;labelBackgroundColor=default;endArrow=classic;" edge="1" parent="1" source="KSS__UjvmdYdS34dEkUz-12" target="KSS__UjvmdYdS34dEkUz-10">
          <mxGeometry relative="1" as="geometry" />
        </mxCell>
        <mxCell id="KSS__UjvmdYdS34dEkUz-58" style="edgeStyle=none;shape=connector;rounded=0;orthogonalLoop=1;jettySize=auto;html=1;exitX=0.75;exitY=0;exitDx=0;exitDy=0;entryX=0.25;entryY=1;entryDx=0;entryDy=0;strokeColor=default;strokeWidth=2;align=center;verticalAlign=middle;fontFamily=Helvetica;fontSize=11;fontColor=default;labelBackgroundColor=default;endArrow=classic;" edge="1" parent="1" source="KSS__UjvmdYdS34dEkUz-13" target="KSS__UjvmdYdS34dEkUz-6">
          <mxGeometry relative="1" as="geometry" />
        </mxCell>
      </root>
    </mxGraphModel>
  </diagram>
</mxfile>
